# xmcd CD database file
#
# Track frame offsets:
#	150
#	12658
#	27875
#	38088
#	47273
#	59325
#	70070
#	83870
#	94893
#	106563
#	119445
#	133248
#	142743
#	153910
#	166115
#	178910
#
# Disc length: 2540 seconds
#
# Revision: 3
# Processed by: cddbd v1.5.2PL0 Copyright (c) Steve Scherf et al.
# Submitted via: CDex 1.51
#
DISCID=c909ea10
DTITLE=Patsy Cline - My Greatest Songs
DYEAR=1992
DGENRE=Country
TTITLE0=Crazy
TTITLE1=The Wayward Wind
TTITLE2=I Love You So Much It Hurts
TTITLE3=Walkin' After Midnight
TTITLE4=You're Stronger Than Me
TTITLE5=Your Cheatin' Heart
TTITLE6=She's Got You
TTITLE7=Crazy Arms
TTITLE8=Lonely Street
TTITLE9=I Fall To Pieces
TTITLE10=So Wrong
TTITLE11=Back In Baby's Arms
TTITLE12=Leavin' On Your Mind
TTITLE13=He Called Me Baby
TTITLE14=Bill Bailey, Won't You Please Come Home
TTITLE15=Sweet Dreams (Of You)
EXTD=YEAR: 1992
EXTT0=
EXTT1=
EXTT2=
EXTT3=
EXTT4=
EXTT5=
EXTT6=
EXTT7=
EXTT8=
EXTT9=
EXTT10=
EXTT11=
EXTT12=
EXTT13=
EXTT14=
EXTT15=
PLAYORDER=
